<?xml version="1.0" encoding="utf-8"?>
<!-- Generator: Adobe Illustrator 22.0.1, SVG Export Plug-In . SVG Version: 6.00 Build 0)  -->
<svg version="1.1" id="Layer_1" xmlns="http://www.w3.org/2000/svg" xmlns:xlink="http://www.w3.org/1999/xlink" x="0px" y="0px"
	 viewBox="0 0 1770.2 780.1" style="enable-background:new 0 0 1770.2 780.1;" xml:space="preserve">
<style type="text/css">
	.st0{fill:#4A90E2;}
	.st1{fill:#000034;}
	.st2{fill:#FFFFFF;}
</style>
<path class="st1" d="M887.7,286.1c-2.4,0-4.4,0.8-5.9,2.5c-1.5,1.7-2.2,3.8-2.2,6.4v159.6L757.9,290.3c-1.9-2.8-4.3-4.2-7.2-4.2
	c-2.8,0-5,0.8-6.6,2.5c-1.6,1.7-2.4,3.8-2.4,6.4v181.4c0,2.8,0.6,5,1.9,6.6c1.3,1.6,3.3,2.4,6.1,2.4c2.4,0,4.4-0.8,5.9-2.5
	c1.5-1.7,2.2-3.8,2.2-6.4V316.5l122,164.7c2.2,2.8,4.7,4.2,7.5,4.2c2.6,0,4.6-0.8,6.1-2.5c1.5-1.7,2.2-3.8,2.2-6.4V295
	c0-2.8-0.7-5-2.1-6.5C892.3,286.9,890.3,286.1,887.7,286.1z M1527.2,284.7c-55.4,0-100.4,45-100.4,100.4
	c0,55.4,45,100.4,100.4,100.4c55.4,0,100.4-45,100.4-100.4C1627.6,329.7,1582.5,284.7,1527.2,284.7z M1527.2,469.1
	c-46.3,0-84-37.7-84-84s37.7-84,84-84c46.3,0,84,37.7,84,84S1573.5,469.1,1527.2,469.1z M1064.4,292c-0.7-1.9-2-3.3-3.8-4.5
	c-1.8-1.1-3.7-1.7-5.7-1.7c-4.5,0-7.5,2-9.2,6.1l-81.4,182.8c-0.4,0.7-0.6,1.8-0.6,3.1c0,2.2,0.8,4,2.4,5.4c1.6,1.4,3.5,2.1,5.7,2.1
	c3.5,0,6.1-1.8,7.8-5.3l21.5-48.5h108.1l21.2,48.5c0.7,1.7,1.8,3,3.2,3.9c1.4,0.9,2.8,1.4,4.3,1.4c2.2,0,4.2-0.7,5.9-2.1
	c1.7-1.4,2.5-3.1,2.5-5.1c0-1.1-0.3-2.2-0.8-3.3L1064.4,292z M1007.5,416.5l47.6-107.8l47.4,107.8H1007.5z M1360,286.1
	c-2.4,0-4.4,0.8-5.8,2.5c-1.5,1.7-2.2,3.8-2.2,6.4v159.6l-121.8-164.4c-1.9-2.8-4.3-4.2-7.2-4.2c-2.8,0-5,0.8-6.6,2.5
	c-1.6,1.7-2.4,3.8-2.4,6.4v181.4c0,2.8,0.6,5,1.9,6.6c1.3,1.6,3.3,2.4,6.1,2.4c2.4,0,4.4-0.8,5.9-2.5c1.5-1.7,2.2-3.8,2.2-6.4V316.5
	l122,164.7c2.2,2.8,4.7,4.2,7.5,4.2c2.6,0,4.6-0.8,6.1-2.5c1.5-1.7,2.2-3.8,2.2-6.4V295c0-2.8-0.7-5-2.1-6.5
	C1364.6,286.9,1362.6,286.1,1360,286.1z"/>
<g>
	<path class="st0" d="M391.2,385.1c0,18.4-14.9,33.2-33.2,33.2s-33.2-14.9-33.2-33.2c0-24.9-8.3-33.2-33.2-33.2s-33.2,8.3-33.2,33.2
		c0,18.4-14.9,33.2-33.2,33.2s-33.2-14.9-33.2-33.2c0-18.4,14.9-33.2,33.2-33.2c24.9,0,33.2-8.3,33.2-33.2
		c0-18.4,14.9-33.2,33.2-33.2s33.2,14.9,33.2,33.2c0,24.9,8.3,33.2,33.2,33.2C376.4,351.9,391.2,366.7,391.2,385.1z"/>
	<circle class="st0" cx="158.6" cy="451.6" r="33.2"/>
	<path class="st0" d="M590.7,318.6c0,18.4-14.9,33.2-33.2,33.2c-24.9,0-33.2,8.3-33.2,33.2c0,18.4-14.9,33.2-33.2,33.2
		c-24.9,0-33.2,8.3-33.2,33.2c0,18.4-14.9,33.2-33.2,33.2s-33.2-14.9-33.2-33.2c0-18.4,14.9-33.2,33.2-33.2
		c24.9,0,33.2-8.3,33.2-33.2c0-18.4,14.9-33.2,33.2-33.2c24.9,0,33.2-8.3,33.2-33.2c0-18.4,14.9-33.2,33.2-33.2
		S590.7,300.3,590.7,318.6z"/>
</g>
</svg>
