<svg id="Layer_1" data-name="Layer 1" xmlns="http://www.w3.org/2000/svg" viewBox="0 0 567.6 567.6"><defs><style>.cls-1{fill:#4a90e2;}.cls-2{fill:#fff;}</style></defs><path class="cls-1" d="M283.8,0h0C127.1,0,0,127.1,0,283.8H0C0,440.5,127.1,567.6,283.8,567.6h0c156.7,0,283.8-127.1,283.8-283.8h0C567.6,127.1,440.5,0,283.8,0Z"/><path class="cls-2" d="M306.2,283.8a22.4,22.4,0,1,1-44.8,0c0-16.8-5.6-22.4-22.4-22.4s-22.3,5.7-22.3,22.4a22.4,22.4,0,1,1-22.4-22.4c16.8,0,22.4-5.6,22.4-22.4a22.4,22.4,0,0,1,44.8,0c0,16.8,5.6,22.4,22.4,22.4A22.54,22.54,0,0,1,306.2,283.8Z"/><circle class="cls-2" cx="149.6" cy="328.6" r="22.4"/><path class="cls-2" d="M440.3,239.1a22.36,22.36,0,0,1-22.4,22.4c-16.8,0-22.4,5.6-22.4,22.4a22.36,22.36,0,0,1-22.4,22.4c-16.8,0-22.4,5.6-22.4,22.4a22.4,22.4,0,1,1-22.4-22.4c16.8,0,22.4-5.6,22.4-22.4a22.36,22.36,0,0,1,22.4-22.4c16.8,0,22.4-5.6,22.4-22.4a22.4,22.4,0,0,1,44.8,0Z"/></svg>